<svg width="108" height="19" viewBox="0 0 108 19" fill="none" xmlns="http://www.w3.org/2000/svg">
<path d="M40.3598 9.09374C40.3598 12.6493 37.4774 15.5317 33.9218 15.5317C30.3662 15.5317 27.4839 12.6493 27.4839 9.09374C27.4839 5.53816 30.3662 2.6558 33.9218 2.6558C37.4774 2.6558 40.3598 5.53816 40.3598 9.09374Z" fill="#4AFF96"/>
<path d="M65.13 9.06508C65.13 14.0716 61.0714 18.1302 56.0649 18.1302C51.0584 18.1302 46.9999 14.0716 46.9999 9.06508C46.9999 4.05858 51.0584 0 56.0649 0C61.0714 0 65.13 4.05858 65.13 9.06508Z" fill="#4AFF96"/>
<path d="M69.5183 0.288368L73.3091 0.288368L78.6308 13.0459L83.989 0.288368L87.7798 0.288368L81.4375 15.0142C81.0973 15.8404 80.7206 16.5087 80.3075 17.019C79.9187 17.5293 79.372 17.7844 78.6673 17.7844C77.9626 17.7844 77.4037 17.5293 76.9906 17.019C76.6018 16.5087 76.2251 15.8404 75.8606 15.0142L69.5183 0.288368Z" fill="white"/>
<path d="M9.44054 3.45953C8.59004 3.45953 7.80029 3.60533 7.0713 3.89693C6.3666 4.16423 5.74695 4.56518 5.21235 5.09978C4.70205 5.63438 4.3011 6.30263 4.0095 7.10453C3.7179 7.90644 3.5721 8.82984 3.5721 9.87474L3.5721 17.7844H0L0 9.87474C0 8.31954 0.23085 6.94658 0.692549 5.75588C1.17855 4.54088 1.83465 3.53243 2.66085 2.73052C3.51135 1.92862 4.50765 1.32112 5.64975 0.908019C6.81614 0.494919 8.07974 0.288368 9.44054 0.288368C10.8256 0.288368 12.0892 0.494919 13.2313 0.908019C14.3977 1.32112 15.4062 1.92862 16.2567 2.73052C17.1072 3.53243 17.7633 4.54088 18.225 5.75588C18.711 6.94658 18.954 8.31954 18.954 9.87474L18.954 17.7844H15.3819L15.3819 9.87474C15.3819 8.82984 15.2361 7.90644 14.9445 7.10453C14.6529 6.30263 14.2398 5.63438 13.7052 5.09978C13.1706 4.56518 12.5388 4.16423 11.8098 3.89693C11.1051 3.60533 10.3153 3.45953 9.44054 3.45953Z" fill="white"/>
<path d="M107.584 17.7841L103.793 17.7841L98.4717 5.02659L93.1136 17.7841L89.3228 17.7841L95.6651 3.05829C96.0053 2.23209 96.3819 1.56383 96.795 1.05353C97.1838 0.543233 97.7306 0.288079 98.4353 0.288079C99.14 0.288079 99.6989 0.543233 100.112 1.05353C100.501 1.56383 100.877 2.23209 101.242 3.05829L107.584 17.7841Z" fill="white"/>
</svg>
