<svg width="96" height="17" viewBox="0 0 96 17" fill="none" xmlns="http://www.w3.org/2000/svg">
<path d="M36.014 8.1146C36.014 11.2873 33.442 13.8593 30.2693 13.8593C27.0966 13.8593 24.5246 11.2873 24.5246 8.1146C24.5246 4.94187 27.0966 2.36987 30.2693 2.36987C33.442 2.36987 36.014 4.94187 36.014 8.1146Z" fill="black" fill-opacity="0.5"/>
<path d="M58.1171 8.08899C58.1171 12.5564 54.4955 16.178 50.0281 16.178C45.5607 16.178 41.9391 12.5564 41.9391 8.08899C41.9391 3.62157 45.5607 0 50.0281 0C54.4955 0 58.1171 3.62157 58.1171 8.08899Z" fill="black" fill-opacity="0.5"/>
<path d="M62.0328 0.257324L65.4155 0.257324L70.1641 11.6412L74.9453 0.257324L78.328 0.257324L72.6686 13.3975C72.365 14.1348 72.0289 14.7311 71.6603 15.1864C71.3134 15.6418 70.8255 15.8695 70.1967 15.8695C69.5678 15.8695 69.0691 15.6418 68.7005 15.1864C68.3536 14.7311 68.0175 14.1348 67.6922 13.3975L62.0328 0.257324Z" fill="black"/>
<path d="M8.42404 3.08702C7.66511 3.08702 6.9604 3.21713 6.3099 3.47733C5.68108 3.71585 5.12815 4.07362 4.65111 4.55066C4.19576 5.0277 3.83798 5.624 3.57778 6.33955C3.31758 7.05511 3.18748 7.87908 3.18748 8.81147L3.18748 15.8695H1.14441e-05L1.14441e-05 8.81147C1.14441e-05 7.42373 0.206004 6.19861 0.61799 5.13612C1.05166 4.05194 1.63711 3.15207 2.37435 2.43652C3.13327 1.72096 4.02229 1.17887 5.04142 0.810254C6.08222 0.441634 7.20976 0.257324 8.42404 0.257324C9.65999 0.257324 10.7875 0.441634 11.8067 0.810254C12.8475 1.17887 13.7473 1.72096 14.5062 2.43652C15.2652 3.15207 15.8506 4.05194 16.2626 5.13612C16.6963 6.19861 16.9131 7.42373 16.9131 8.81147L16.9131 15.8695L13.7256 15.8695V8.81147C13.7256 7.87908 13.5955 7.05511 13.3353 6.33955C13.0751 5.624 12.7065 5.0277 12.2295 4.55066C11.7524 4.07362 11.1887 3.71585 10.5382 3.47733C9.90935 3.21713 9.20464 3.08702 8.42404 3.08702Z" fill="black"/>
<path d="M96 15.8691L92.6174 15.8691L87.8687 4.48529L83.0875 15.8691L79.7049 15.8691L85.3643 2.72893C85.6678 1.99169 86.0039 1.39539 86.3725 0.940036C86.7195 0.484681 87.2074 0.257003 87.8362 0.257003C88.465 0.257003 88.9637 0.484681 89.3323 0.940036C89.6793 1.39539 90.0154 1.99169 90.3406 2.72893L96 15.8691Z" fill="black"/>
</svg>
