<svg width="24" height="24" viewBox="0 0 24 24" fill="none" xmlns="http://www.w3.org/2000/svg">
<g clip-path="url(#clip0_142_257)">
<path d="M23.3593 9.8C23.7583 9.28855 23.9818 8.66209 23.9965 8.01358C24.0113 7.36508 23.8166 6.72909 23.4413 6.2L19.9103 1.257C19.6329 0.86832 19.2666 0.551492 18.8421 0.332861C18.4175 0.11423 17.9469 0.000113137 17.4693 0L6.53132 0C6.05377 0.000113137 5.58314 0.11423 5.15858 0.332861C4.73401 0.551492 4.36778 0.86832 4.09032 1.257L0.559319 6.2C0.184762 6.72953 -0.00923503 7.36564 0.00607509 8.01407C0.0213852 8.6625 0.245188 9.28874 0.644319 9.8L12.0003 24.108L23.3593 9.8ZM7.25332 9L10.0533 18.432L2.56232 9H7.25332ZM21.4383 9L13.9523 18.432L16.7473 9H21.4383ZM14.6613 9L12.0003 17.979L9.33932 9H14.6613ZM9.32632 7L10.7543 2H13.2463L14.6743 7H9.32632ZM18.2833 2.419L21.5553 7H16.7553L15.3263 2H17.4693C17.6286 1.99998 17.7855 2.038 17.9271 2.11088C18.0687 2.18376 18.1908 2.28939 18.2833 2.419ZM5.71732 2.419C5.80984 2.28939 5.93197 2.18376 6.07355 2.11088C6.21514 2.038 6.37208 1.99998 6.53132 2H8.67432L7.24632 7H2.44632L5.71732 2.419Z" fill="#374957"/>
</g>
<defs>
<clipPath id="clip0_142_257">
<rect width="24" height="24" fill="white"/>
</clipPath>
</defs>
</svg>
