<svg width="24" height="24" viewBox="0 0 24 24" fill="none" xmlns="http://www.w3.org/2000/svg">
<g clip-path="url(#clip0_227_1335)">
<path d="M20.0004 12.0001C19.3869 12 18.7817 12.1412 18.2316 12.4128C17.6815 12.6844 17.2014 13.079 16.8284 13.5661L16.7584 13.5361C17.0334 12.6841 17.0747 11.7739 16.8778 10.9006C16.6809 10.0272 16.2531 9.22274 15.6392 8.57116C15.0252 7.91959 14.2475 7.44481 13.3874 7.19643C12.5273 6.94804 11.6162 6.93515 10.7494 7.15911L10.6584 6.98711C11.3848 6.34083 11.8506 5.45184 11.9684 4.48675C12.0863 3.52166 11.8482 2.5467 11.2987 1.74461C10.7492 0.942516 9.92604 0.368336 8.98352 0.129678C8.041 -0.108979 7.0438 0.00426647 6.1788 0.448193C5.3138 0.892119 4.64038 1.63625 4.28474 2.54114C3.9291 3.44602 3.91565 4.44954 4.24692 5.36363C4.57819 6.27772 5.23144 7.03963 6.08424 7.50657C6.93703 7.97351 7.93084 8.11343 8.87942 7.90011L8.95242 8.03711C7.95247 8.80443 7.2798 9.92162 7.06946 11.1644C6.85912 12.4071 7.12668 13.6835 7.81842 14.7371L5.93341 16.5001C5.08138 16.0294 4.08693 15.8855 3.13641 16.0954C2.18588 16.3053 1.34453 16.8547 0.770012 17.6405C0.195492 18.4263 -0.072764 19.3946 0.015513 20.364C0.10379 21.3334 0.542541 22.2374 1.24955 22.9065C1.95656 23.5756 2.88329 23.9639 3.8561 23.9987C4.8289 24.0335 5.78101 23.7124 6.534 23.0954C7.28699 22.4785 7.78918 21.6082 7.94647 20.6476C8.10376 19.687 7.90535 18.7019 7.38842 17.8771L9.22642 16.1591C10.2359 16.8338 11.4567 17.1176 12.6602 16.9573C13.8638 16.797 14.9677 16.2036 15.7654 15.2881L16.0444 15.4071C15.9234 16.2146 16.0523 17.0397 16.414 17.7718C16.7756 18.5038 17.3526 19.1076 18.0674 19.5021C18.7822 19.8967 19.6007 20.063 20.4128 19.9788C21.2249 19.8946 21.9918 19.5638 22.6105 19.031C23.2292 18.4982 23.67 17.7888 23.8737 16.9982C24.0774 16.2075 24.0343 15.3735 23.7502 14.608C23.466 13.8426 22.9544 13.1824 22.2841 12.7162C21.6138 12.25 20.8169 12.0001 20.0004 12.0001ZM6.00042 4.00011C6.00042 3.60454 6.11771 3.21786 6.33748 2.88897C6.55724 2.56007 6.8696 2.30372 7.23505 2.15235C7.6005 2.00097 8.00263 1.96137 8.3906 2.03854C8.77856 2.11571 9.13492 2.30619 9.41463 2.58589C9.69433 2.8656 9.88482 3.22196 9.96199 3.60993C10.0392 3.99789 9.99955 4.40002 9.84818 4.76547C9.6968 5.13093 9.44045 5.44328 9.11156 5.66305C8.78266 5.88281 8.39598 6.00011 8.00042 6.00011C7.46998 6.00011 6.96127 5.78939 6.5862 5.41432C6.21113 5.03925 6.00042 4.53054 6.00042 4.00011ZM4.00041 22.0001C3.60485 22.0001 3.21817 21.8828 2.88927 21.663C2.56038 21.4433 2.30403 21.1309 2.15266 20.7655C2.00128 20.4 1.96167 19.9979 2.03884 19.6099C2.11601 19.222 2.3065 18.8656 2.5862 18.5859C2.86591 18.3062 3.22227 18.1157 3.61023 18.0385C3.9982 17.9614 4.40033 18.001 4.76578 18.1523C5.13123 18.3037 5.44359 18.5601 5.66335 18.889C5.88312 19.2179 6.00042 19.6045 6.00042 20.0001C6.00042 20.5305 5.7897 21.0392 5.41463 21.4143C5.03956 21.7894 4.53085 22.0001 4.00041 22.0001ZM12.0004 15.0001C11.3511 14.9988 10.7197 14.7869 10.2011 14.3962C9.68252 14.0055 9.30466 13.4571 9.12432 12.8334C8.94398 12.2096 8.97088 11.5441 9.20098 10.937C9.43108 10.3298 9.85196 9.81368 10.4004 9.46611L10.8074 9.24911C11.2164 9.07121 11.6598 8.98674 12.1056 9.00183C12.5513 9.01691 12.988 9.13119 13.384 9.33633C13.78 9.54147 14.1253 9.83232 14.3947 10.1877C14.6641 10.5431 14.851 10.9541 14.9415 11.3908C15.0321 11.8274 15.0242 12.2788 14.9184 12.712C14.8125 13.1453 14.6114 13.5495 14.3297 13.8952C14.048 14.2409 13.6928 14.5195 13.2898 14.7106C12.8869 14.9018 12.4464 15.0007 12.0004 15.0001ZM20.0004 18.0001C19.6049 18.0001 19.2182 17.8828 18.8893 17.663C18.5604 17.4433 18.304 17.1309 18.1527 16.7655C18.0013 16.4 17.9617 15.9979 18.0388 15.6099C18.116 15.222 18.3065 14.8656 18.5862 14.5859C18.8659 14.3062 19.2223 14.1157 19.6102 14.0385C19.9982 13.9614 20.4003 14.001 20.7658 14.1523C21.1312 14.3037 21.4436 14.5601 21.6634 14.889C21.8831 15.2179 22.0004 15.6045 22.0004 16.0001C22.0004 16.5305 21.7897 17.0392 21.4146 17.4143C21.0396 17.7894 20.5308 18.0001 20.0004 18.0001Z" fill="#4AFF96"/>
</g>
<defs>
<clipPath id="clip0_227_1335">
<rect width="24" height="24" fill="white"/>
</clipPath>
</defs>
</svg>
