<svg width="24" height="24" viewBox="0 0 24 24" fill="none" xmlns="http://www.w3.org/2000/svg">
<g clip-path="url(#clip0_226_726)">
<path d="M16.6296 2.90009C15.8426 2.2331 15.0176 1.53209 14.1776 0.768072C13.5332 0.18204 12.6629 -0.0895536 11.7996 0.0260871C10.963 0.136618 10.2186 0.612822 9.76761 1.32607C8.57558 3.31807 7.73277 5.49912 7.2756 7.77509C7.09621 7.51606 6.93707 7.24362 6.79958 6.96007C6.32596 5.9622 5.13308 5.53718 4.13521 6.01081C3.89361 6.12546 3.67747 6.28742 3.49958 6.48706C1.82225 8.20109 0.892395 10.5099 0.913582 12.908C0.86591 17.9486 4.25643 22.3741 9.1356 23.6401C10.0434 23.8685 10.9755 23.9867 11.9116 23.9921C11.9416 23.9921 12.2606 23.9891 12.3896 23.9801C18.3596 23.7867 23.097 18.8872 23.0896 12.914C23.0856 8.38409 20.0936 5.84407 16.6296 2.90009ZM11.8866 21.9851C11.1424 21.9284 10.4069 21.627 9.85161 21.179C8.98208 20.5638 8.40669 19.6615 8.26963 18.6221C8.09961 17 9.09964 14.879 11.1426 12.4831C11.3569 12.2329 11.6703 12.0895 11.9997 12.0911C12.3248 12.0887 12.634 12.2317 12.8427 12.4811C14.7147 14.7031 15.7427 16.7531 15.7427 18.254C15.7369 20.2261 14.1955 21.7861 12.2327 21.9761C12.1465 21.9844 11.9996 21.9971 11.8866 21.9851ZM17.5756 20.0831C17.5166 20.129 17.4516 20.1661 17.3916 20.21C17.6224 19.5829 17.7412 18.9202 17.7426 18.252C17.7426 15.725 15.9076 13.017 14.3697 11.19C13.7812 10.4931 12.9157 10.0908 12.0036 10.09H11.9996C11.0857 10.0884 10.2171 10.488 9.62361 11.183C7.17861 14.047 6.05563 16.62 6.2856 18.831C6.34021 19.3443 6.47132 19.8465 6.67461 20.321C4.30002 18.6004 2.90085 15.8404 2.9166 12.908C2.89729 11.003 3.6485 9.17107 4.99958 7.82801C5.23025 8.30754 5.50724 8.76335 5.8266 9.18903C6.26521 9.78199 7.0145 10.0572 7.73258 9.88901C8.46472 9.72706 9.03318 9.1496 9.1836 8.41502C9.58536 6.2914 10.3531 4.25374 11.4526 2.39304C11.5879 2.18032 11.8113 2.03942 12.0616 2.00904C12.3413 1.9714 12.6232 2.05967 12.8316 2.25002C13.6896 3.03002 14.5316 3.75002 15.3316 4.42704C18.6696 7.26204 21.0826 9.31006 21.0826 12.914C21.0912 15.7187 19.7965 18.3683 17.5786 20.085L17.5756 20.0831Z" fill="#4AFF96"/>
</g>
<defs>
<clipPath id="clip0_226_726">
<rect width="24" height="24" fill="white"/>
</clipPath>
</defs>
</svg>
